<?xml version="1.0" encoding="UTF-8"?>
<svg version="1.1" viewBox="0 0 1080 1080" width="1080" height="1080" xmlns="http://www.w3.org/2000/svg">
<path transform="translate(0)" d="m0 0h1080v1080h-1080z" fill="#fff"/>
<path transform="translate(309,199)" d="m0 0 14 1 15 4 12 6 12 9 14 14 7 11 4 11 2 18 2 43 2 20-11 14-8 14-6 18-1 6v15l16 1 1 2-2 8v31l2 5 8-1 7-3 5 16 4 6 12 11 6 12 8 7 6 10 5 13 7 31 8 16 9 10 13 8 13 5 12 2h36l15-4 14-7 7-6 7-10 7-14 7-33 5-15 4-6 9-8 7-6 7-9 8-9 4-8 2-12 8 3 7 1 2-12v-25l-2-7v-4l11 1 4-5v-12l-4-17-9-17-10-14 1-14 2-59 2-12 4-9 7-12 9-10 9-8 12-7 15-5 11-2h13l1 3-5 5-14 10-6 7-3 10v41l25 2 32 5 31 7 26 8 10 6 6 8 1 3 1 16 54-5 17-2h32l19 5 5 5v13l-3 14-1 16-3 10-8 10-5 14-8 12-5 6-8 6h-2l-2-17-2-18 12-1 7-4 2-3-8-5-16-6-5-1 2 4v11l-5 10-8 10-8 8-4 1v-8l3-15 2-14 2-10-12-1h-26l-22 3-19 5-16 6-10 6-12 11-6 9-5 16-1 5-1 19 5 1 11 8 14 12 18 13 23 13 19 9 25 10 21 6 5 2 1 2-2 4-14 8-11 11-9 5-4 1h-19l-9-4-16-9-19-12-14-7-12 2-14 7-10 9-6 7-5 11-3 14v33l4 16 5 13 3 9-3 1-10-5-14-12-8-8h-1l13 40 3 17v18l-2 15-3 9-4-1-14-28-7-9 1 13v33l-4 17-5 12-6 10-8 10-8 8-4 1 1-12 1-6v-30l-3-16-2-3-3-1-2 22-5 24-6 15-10 17-8 10-11 12-11 9-4 1 2-10 6-21 1-5v-33l-2-7-7-2v16l-5 20-7 19-9 16-8 10-15 15-4 1 2-26v-25l-2-6-2 1-7 24-15 53-7 25-3 9-3 1-3-3-5-11-14-43-14-49-3-7h-2l-1 3v23l4 27v5l-4-1-12-11-9-10-8-14-8-18-7-23-4-19-4-1-2 5v30l4 19 7 23-5-1-14-11-9-10-10-14-10-18-6-16-4-20-2-21-4 3-3 9-1 7v15l2 20 1 7v9l-7-4-11-14-8-14-6-16-3-18-1-39-7 10-5 11-5 13-2 2-4-1-3-11-1-11v-17l2-14 11-37 1-9-8 11-6 7-15 11-3 1-1-2 10-31 2-13v-14l-2-17-4-13-6-12-8-9-10-6-15-7-6 1-17 8-24 15-12 6-11 3h-8l-9-3-9-7-11-10-10-6 1-4 54-24 24-13 17-11 10-8 12-12 7-8 7-6v-13l-4-13-6-11-9-10-12-9-19-10-18-6-10-2-11-1h-18l-15 2-3 1 1 5 4 8 6 28v6l-5-1-9-7-7-11-3-6-1-11 4-9-13 4-7 4h-2l-1 9 3 3 9 1h3v13l-1 20-1 2-5-1-6-5-7-10-5-12-3-11-5-3-6-8-2-11-2-19-2-7v-15l3-3 10-4 13-3h16l60 6 17 1v-13l3-7 5-6 12-7 28-8 37-9 24-4h20l1-12-1-32-3-8-10-10-11-8-4-4v-3z"/>
<path transform="translate(460,191)" d="m0 0h10l-2 4-9 12-3 7v23l9 15v23l21-6 14-2h38l23 2 19 6v-23l3-7 6-10v-19l-4-10-9-11-2-4h12l10 3 10 6 10 9 7 8 8 13 5 12 2 11 1 19v20l-1 20-2 15v13l10 13 11 18 5 12v4h-7l-12-3 5 21 2 16v9l-4 1-8-2h-4v10l-3 12-8 11-12 11-8 8-10 15-8 17-3 12-2 16-5 13-7 10-5 5-8 5-15 4-7 1h-21l-14-2-11-4-9-7-7-8-6-12-6-24-8-22-8-14-12-14-7-7-10-13-1-4-2-19-11 4h-5v-18l4-21 3-11-10 3-6 2h-5l1-5 5-12 8-15 12-16v-91l6-18 7-12 7-9 7-7 11-7 9-4z"/>
<path transform="translate(498,360)" d="m0 0h46l11 2 11 6 10 9 7 7 7 11 4 10 1 5v26l-4 10-9 16-8 11-7 7-2 1h-9l-6-5-3-14-1-17h-47l-1 15-3 16-3 4-3 1h-10l-8-7-8-11-12-23-1-2-1-10v-18l4-13 8-14 10-11 14-8z" fill="#fff"/>
<path transform="translate(857,391)" d="m0 0h27v18l-21 5-9 5-6 5-9 13-1 5 23 4 27 2 24 2 17 4 14 6 17 10 11 9 6 8 1 6h-10l-19-5-25-8-12-3-8-1h-13l-21 3-12 5-2 9-6-1-14-7-21-14-11-9-8-8-9-13-1-2v-8l5-10 9-10 8-6 12-6 13-4z"/>
<path transform="translate(509,376)" d="m0 0h27l15 3 11 8 11 10 5 8 2 8v15l-3 11-5 8-8 16-3 3-3-1-2-9-1-22-20-5-17-1-16 2-13 4-1 1-1 21-2 10h-3l-5-6-8-19-3-7-1-5v-18l3-8 6-8 7-8 10-7 10-3z"/>
<path transform="translate(167,389)" d="m0 0h10l21 2 17 4 14 6 13 9 10 10 5 8 1 4v9l-4 6-21 21-14 11-22 13-4 2-5-1 1-7 8-16 9-12 7-7 2-1-2-5-10-15-7-8-8-5-19-7-2-2-2-10v-8z"/>
<path transform="translate(485,496)" d="m0 0h6l5 8 6 15v5l-6-5-6-8v-2h-3v12l3 7 6 4 6-5 4 2 3 2 26 1 6-7 6 5h7l3-13-1-7-5 1-7 8h-2l1-5 9-15 3-3h6l4 4 2 6v22l-3 8-7 6-13 4h-41l-15-3-8-5-3-12v-18l4-9z" fill="#fff"/>
<path transform="translate(787,207)" d="m0 0h12v4l-9 8-8 7-4 8-2 10-1 19-2 2h-9l-35-5-1-1 1-8 6-10 11-12 10-9 14-8 11-4z"/>
<path transform="translate(250,207)" d="m0 0h7l17 4 12 7 10 8 7 6 10 13 5 11-1 4-34 5h-9l-1-5-1-19-3-10-9-10-10-9-1-4z"/>
<path transform="translate(596,603)" d="m0 0h10l5 2-2 18-4 17-8 17-10 13-12 12-6 3h-6l-5-4 1-5 11-12 9-12 8-15 6-18z" fill="#fff"/>
<path transform="translate(443,602)" d="m0 0 3 1 4 16 7 21 7 13 8 10 9 10 4 6-2 4-3 2h-6l-9-6-11-11-10-15-6-15-4-14-2-14v-7z" fill="#fff"/>
<path transform="translate(350,438)" d="m0 0 12 2 1 3v12l-3 12-7 13-9 10-10 7-11 5-9 2h-7l-5-5v-5l8-5 16-8 8-7 8-11 4-9z" fill="#fff"/>
<path transform="translate(687,435)" d="m0 0h7l2 5 5 19 7 13 4 5 11 7 10 4 13 4 2 2-1 4-5 4h-16l-13-4-11-8-8-8-6-9-3-8-1-6v-20z" fill="#fff"/>
<path transform="translate(689,546)" d="m0 0h6l9 5-2 5-6 10-9 19-7 19-1 1h-7l-4-3v-8l5-18 8-18 7-11z" fill="#fff"/>
<path transform="translate(348,546)" d="m0 0h5l7 8 10 19 6 18 1 9-4 4-8 1-12-30-11-21-1-4z" fill="#fff"/>
<path transform="translate(254,319)" d="m0 0h13l10 5v3l-9 10-5 4-9 3-9-1-9-4-3-2 1-4 11-11z" fill="#fff"/>
<path transform="translate(593,329)" d="m0 0h8v7l-4 11-5 7-6 3h-8l-12-5-6-5 1-4 21-11z" fill="#fff"/>
<path transform="translate(779,319)" d="m0 0h15l8 3 10 9 2 3-1 4-6 4-6 2h-9l-8-4-9-9-3-5 2-4z" fill="#fff"/>
<path transform="translate(444,329)" d="m0 0h7l13 4 16 8 4 3-2 4-11 7-2 1h-10l-8-4-4-6-4-13z" fill="#fff"/>
<path transform="translate(158,477)" d="m0 0 5 1 12 11 6 8v5l-8 4-8 1-3-7-4-20z"/>
<path transform="translate(887,482)" d="m0 0 5 1v9l-4 12-3 4-8-1-10-3 2-5 9-10z"/>
<path transform="translate(131,492)" d="m0 0 8 1 12 9 4 6v5l-10 4h-4l-8-11-2-6z"/>
<path transform="translate(917,492)" d="m0 0h4v9l-4 8-4 5-7 3-7-3-1-1v-8l8-7z"/>
<path transform="translate(931,339)" d="m0 0 10 2 6 4 3 3v7l-3 5-7-1-10-9-3-4v-5z" fill="#fff"/>
<path transform="translate(117,340)" d="m0 0h6l3 5-5 8-4 5-5 3-4-2-3-5v-6l5-5z" fill="#fff"/>
<path transform="translate(540,391)" d="m0 0 8 1 3 4-2 6-6 5-6 1-4-3v-9l4-4z" fill="#fff"/>
<path transform="translate(501,391)" d="m0 0 6 1 5 5 1 6-2 4-4 1-10-5-2-2v-7l2-2z" fill="#fff"/>
</svg>
