<?xml version="1.0" standalone="no"?>
<!DOCTYPE svg PUBLIC "-//W3C//DTD SVG 1.1//EN" "http://www.w3.org/Graphics/SVG/1.1/DTD/svg11.dtd">
<svg xmlns="http://www.w3.org/2000/svg" id="Camada_2" data-name="Camada 2" viewBox="0 0 30.87 43.8" width="30.8700008392334" height="43.79999923706055">
  <defs>
    <style>
      .cls-1 {
        fill: #ed2232;
      }

      .cls-1, .cls-2 {
        stroke-width: 0px;
      }

      .cls-2 {
        fill: #040606;
      }
    </style>
  </defs>
  <g id="svg1">
    <g id="g1">
      <path id="path24" class="cls-2" d="M16.53,30.46c-.05.1-.1.2-.14.3v.03c-1.02,2.09-1.57,2.7-3.57,2.7,0,0-2.2,0-2.64-1.91l-.82-15.66s0-.04,0-.06c-.08-1.83,1.16-3.97,2.99-3.91.8.03,1.57.34,2.31.64,1.26.5,2.54.97,3.82,1.43,1.37.49,2.94.9,3.21,2.55.22,1.34-.42,2.55-.92,3.74-.54,1.29-1.09,2.58-1.63,3.87l-2.16,5.16c-.15.37-.3.74-.46,1.1h0ZM26,5.82c-.08-.03-.16-.06-.24-.09-1.93-.68-3.83-1.46-5.77-2.13-2.4-.83-4.79-1.68-7.23-2.38C10.23.49,7.59-.26,4.94.09,1.84.51,0,3.68,0,6.75v31.64c0,.54.07,1.08.21,1.6.14.49.34.95.62,1.37.27.41.59.78.97,1.09,1.08.88,2.5,1.15,3.86,1.27.98.09,1.96.09,2.95.05.34-.01.68-.03,1.03-.04.37-.02.75-.04,1.12-.07.4-.03.8-.06,1.19-.1.42-.04.84-.08,1.25-.13.43-.05.86-.1,1.29-.16.44-.06.88-.12,1.32-.2.44-.07.89-.15,1.33-.23s.88-.17,1.32-.27c.43-.1.87-.2,1.3-.32.42-.11.84-.23,1.26-.36.4-.13.81-.26,1.2-.41.38-.14.76-.29,1.13-.46.35-.16.7-.33,1.04-.51.32-.17.63-.36.94-.56.28-.19.56-.4.81-.62.24-.21.47-.44.68-.68.2-.23.37-.48.52-.74.23-.41.39-.86.47-1.32.03-.19.05-.39.08-.58.03-.2.05-.4.08-.6.03-.27.07-.53.1-.8.04-.33.08-.65.12-.98.05-.38.1-.76.14-1.13.05-.42.11-.85.16-1.27.06-.46.12-.93.18-1.39.06-.5.13-.99.19-1.49.07-.52.13-1.05.2-1.57.07-.54.14-1.09.21-1.63.07-.56.14-1.11.21-1.67.07-.56.14-1.13.21-1.69.07-.56.14-1.13.21-1.69.07-.56.14-1.12.21-1.67.07-.55.14-1.09.21-1.64.19-1.54.43-3.07.54-4.61.09-1.33-.09-2.67-.86-3.8-.92-1.35-2.5-2.04-3.99-2.57"/>
      <path id="path25" class="cls-1" d="M30.16,18.02l-2.23,17.67-12.34-3.46s2.58-5.72,3.41-7.67c.68-1.6,2.65-6.54,2.65-6.54h8.52"/>
    </g>
  </g>
</svg>